<svg width="30" height="25" viewBox="0 0 30 25" fill="none" xmlns="http://www.w3.org/2000/svg">
<path d="M30 2.8869C28.8967 3.37573 27.7116 3.70604 26.4657 3.85533C27.7367 3.09433 28.7118 1.88668 29.1716 0.449172C27.9824 1.15475 26.6652 1.66736 25.2634 1.94217C24.1403 0.747824 22.5416 0 20.7711 0C17.3729 0 14.6169 2.75608 14.6169 6.15694C14.617 6.62826 14.6702 7.09806 14.7754 7.5575C9.65826 7.2998 5.12507 4.8489 2.08888 1.12568C1.56044 2.03733 1.25649 3.09433 1.25649 4.22001C1.25649 6.35507 2.34392 8.24052 3.9941 9.34378C3.01675 9.31265 2.06097 9.04856 1.2063 8.57348V8.65274C1.2063 11.6347 3.32689 14.1227 6.14376 14.6882C5.61519 14.8308 5.07007 14.9027 4.5226 14.9022C4.13383 14.9025 3.74589 14.8662 3.36391 14.7939C4.14739 17.2381 6.41993 19.0192 9.11393 19.0667C7.00651 20.7182 4.35218 21.7026 1.46922 21.7026C0.972441 21.7026 0.482248 21.6735 0 21.6166C2.72442 23.3648 5.95881 24.382 9.43364 24.382C20.7566 24.382 26.9466 15.0039 26.9466 6.8704C26.9466 6.60618 26.94 6.33925 26.9281 6.07503C28.1304 5.20563 29.1742 4.12356 29.9973 2.89084L30 2.8869Z" fill="#1DA1F2"/>
</svg>
