<svg width="17" height="17" viewBox="0 0 17 17" fill="none" xmlns="http://www.w3.org/2000/svg">
<path opacity="0.4" d="M8.5 15.5833C12.4121 15.5833 15.5833 12.4121 15.5833 8.49996C15.5833 4.58783 12.4121 1.41663 8.5 1.41663C4.58787 1.41663 1.41666 4.58783 1.41666 8.49996C1.41666 12.4121 4.58787 15.5833 8.5 15.5833Z" fill="#0038FF"/>
<path d="M7.49417 11.0373C7.35332 11.0372 7.21828 10.9811 7.11875 10.8815L5.11417 8.87689C5.01537 8.77692 4.95996 8.64203 4.95996 8.50147C4.95996 8.36092 5.01537 8.22603 5.11417 8.12606C5.31958 7.92064 5.65958 7.92064 5.865 8.12606L7.49417 9.75522L11.135 6.11439C11.3404 5.90897 11.6804 5.90897 11.8858 6.11439C12.0912 6.31981 12.0912 6.65981 11.8858 6.86522L7.86958 10.8815C7.77005 10.9811 7.63502 11.0372 7.49417 11.0373Z" fill="white"/>
</svg>
