<svg width="17" height="17" viewBox="0 0 17 17" fill="none" xmlns="http://www.w3.org/2000/svg">
<path opacity="0.4" d="M8.5 15.5834C12.4121 15.5834 15.5833 12.4121 15.5833 8.50002C15.5833 4.5879 12.4121 1.41669 8.5 1.41669C4.58787 1.41669 1.41666 4.5879 1.41666 8.50002C1.41666 12.4121 4.58787 15.5834 8.5 15.5834Z" fill="#0038FF"/>
<path d="M7.49417 11.0372C7.35332 11.0371 7.21828 10.9811 7.11875 10.8814L5.11417 8.87683C5.01537 8.77686 4.95996 8.64197 4.95996 8.50141C4.95996 8.36086 5.01537 8.22597 5.11417 8.126C5.31958 7.92058 5.65958 7.92058 5.865 8.126L7.49417 9.75516L11.135 6.11433C11.3404 5.90891 11.6804 5.90891 11.8858 6.11433C12.0912 6.31975 12.0912 6.65975 11.8858 6.86516L7.86958 10.8814C7.77005 10.9811 7.63502 11.0371 7.49417 11.0372Z" fill="white"/>
</svg>
