<svg width="30" height="31" viewBox="0 0 30 31" fill="none" xmlns="http://www.w3.org/2000/svg">
<g clip-path="url(#clip0_19_4)">
<path d="M30 15.8434C30 14.5727 29.8979 13.6453 29.6769 12.6836H15.3061V18.4194H23.7414C23.5714 19.8448 22.6531 21.9914 20.6122 23.4339L20.5836 23.6259L25.1274 27.1803L25.4422 27.212C28.3333 24.5158 30 20.5488 30 15.8434Z" fill="#4285F4"/>
<path d="M15.3061 30.9557C19.4387 30.9557 22.9081 29.5818 25.4421 27.212L20.6122 23.4339C19.3197 24.344 17.585 24.9794 15.3061 24.9794C11.2585 24.9794 7.82317 22.2833 6.59856 18.5568L6.41906 18.5722L1.69439 22.2644L1.6326 22.4378C4.14958 27.4867 9.31966 30.9557 15.3061 30.9557Z" fill="#34A853"/>
<path d="M6.59857 18.5568C6.27545 17.5951 6.08845 16.5647 6.08845 15.5C6.08845 14.4352 6.27545 13.4049 6.58157 12.4432L6.57301 12.2384L1.78913 8.48686L1.63261 8.56204C0.595245 10.6572 0 13.0099 0 15.5C0 17.9901 0.595245 20.3427 1.63261 22.4378L6.59857 18.5568Z" fill="#FBBC05"/>
<path d="M15.3061 6.02046C18.1802 6.02046 20.1189 7.27408 21.2244 8.32171L25.5442 4.06277C22.8912 1.57269 19.4387 0.0442886 15.3061 0.0442886C9.31966 0.0442886 4.14958 3.51321 1.6326 8.56204L6.58156 12.4432C7.82317 8.71666 11.2585 6.02046 15.3061 6.02046Z" fill="#EB4335"/>
</g>
<defs>
<clipPath id="clip0_19_4">
<rect width="30" height="31" fill="white"/>
</clipPath>
</defs>
</svg>
