<svg width="88" height="19" viewBox="0 0 88 19" fill="none" xmlns="http://www.w3.org/2000/svg">
<path d="M5.92167 14.5271L8.37584 16.4271C8.6925 16.7437 9.405 16.9021 9.88 16.9021H12.8883C13.8383 16.9021 14.8675 16.1896 15.105 15.2396L17.005 9.46041C17.4008 8.35208 16.6883 7.40208 15.5008 7.40208H12.3342C11.8592 7.40208 11.4633 7.00624 11.5425 6.45208L11.9383 3.91874C12.0967 3.20624 11.6217 2.41458 10.9092 2.17708C10.2758 1.93958 9.48417 2.25625 9.1675 2.73125L5.92167 7.56041" stroke="#023047" stroke-width="1.5" stroke-miterlimit="10"/>
<path d="M1.88417 14.527V6.76869C1.88417 5.66036 2.35917 5.26453 3.4675 5.26453H4.25917C5.3675 5.26453 5.8425 5.66036 5.8425 6.76869V14.527C5.8425 15.6354 5.3675 16.0312 4.25917 16.0312H3.4675C2.35917 16.0312 1.88417 15.6354 1.88417 14.527Z" stroke="#023047" stroke-width="1.5" stroke-linecap="round" stroke-linejoin="round"/>
<g clip-path="url(#clip0_23_356)">
<path d="M79.2046 4.65503H73.0454C72.3931 4.65712 71.768 4.91718 71.3068 5.37846C70.8455 5.83974 70.5854 6.46477 70.5833 7.11711V16.1104C70.5833 17.2584 71.4067 17.7492 72.4121 17.1871L75.5233 15.4534C75.8558 15.2713 76.3942 15.2713 76.7187 15.4534L79.83 17.1871C80.8354 17.7492 81.6587 17.2584 81.6587 16.1104V7.11711C81.6593 6.79431 81.5962 6.47456 81.4731 6.17613C81.3501 5.87769 81.1695 5.60642 80.9416 5.3778C80.7137 5.14917 80.443 4.96767 80.145 4.84366C79.8469 4.71964 79.5274 4.65555 79.2046 4.65503Z" stroke="#023047" stroke-width="1.5" stroke-linecap="round" stroke-linejoin="round"/>
<path d="M81.6667 7.11711V16.1104C81.6667 17.2584 80.8433 17.7413 79.8379 17.1871L76.7267 15.4534C76.3942 15.2713 75.8558 15.2713 75.5233 15.4534L72.4121 17.1871C71.4067 17.7413 70.5833 17.2584 70.5833 16.1104V7.11711C70.5833 5.76336 71.6917 4.65503 73.0454 4.65503H79.2046C80.5583 4.65503 81.6667 5.76336 81.6667 7.11711Z" stroke="#023047" stroke-width="1.5" stroke-linecap="round" stroke-linejoin="round"/>
<path d="M86.4167 4.04546V13.0388C86.4167 14.1867 85.5933 14.6696 84.5879 14.1155L81.6667 12.4846V7.11712C81.6667 5.76337 80.5583 4.65504 79.2046 4.65504H75.3333V4.04546C75.3333 2.69171 76.4417 1.58337 77.7954 1.58337H83.9546C85.3083 1.58337 86.4167 2.69171 86.4167 4.04546Z" stroke="#023047" stroke-width="1.5" stroke-linecap="round" stroke-linejoin="round"/>
</g>
<path d="M42.425 10.8063L45.4083 7.96417M40.1667 5.00333L47.2417 2.76292C50.4167 1.7575 52.1417 3.40417 51.0917 6.42042L48.7333 13.1417C47.15 17.6621 44.55 17.6621 42.9667 13.1417L42.2667 11.1467L40.1667 10.4817C35.4083 8.9775 35.4083 6.51542 40.1667 5.00333V5.00333Z" stroke="#023047" stroke-width="1.5" stroke-linecap="round" stroke-linejoin="round"/>
<defs>
<clipPath id="clip0_23_356">
<rect width="19" height="19" fill="white" transform="translate(69)"/>
</clipPath>
</defs>
</svg>
