<svg width="20" height="21" viewBox="0 0 20 21" fill="none" xmlns="http://www.w3.org/2000/svg">
<path d="M10.0039 11.4997C10.8323 11.4997 11.5038 10.8281 11.5038 9.99973C11.5038 9.17132 10.8323 8.49977 10.0039 8.49977C9.17547 8.49977 8.50392 9.17132 8.50392 9.99973C8.50392 10.8281 9.17547 11.4997 10.0039 11.4997Z" fill="black"/>
<path d="M19.8936 8.31977L19.1037 5.79984C19.0184 5.5086 18.8753 5.23753 18.683 5.00278C18.4906 4.76804 18.253 4.57444 17.9842 4.43352C17.7155 4.2926 17.4211 4.20726 17.1186 4.18258C16.8161 4.1579 16.5118 4.1944 16.2237 4.28988L15.8837 4.39988C15.6174 4.48792 15.3337 4.51026 15.0569 4.46499C14.78 4.41972 14.5182 4.30818 14.2938 4.13989L14.1838 4.05989C13.9648 3.89227 13.7882 3.67552 13.6684 3.42714C13.5485 3.17875 13.4887 2.90567 13.4938 2.62993V2.34994C13.4987 1.72198 13.2541 1.11776 12.8138 0.669982C12.6044 0.45844 12.3553 0.290354 12.0807 0.175378C11.8061 0.0604026 11.5115 0.00080217 11.2139 0H8.66395C8.05214 0.00790605 7.46823 0.257185 7.03934 0.693564C6.61045 1.12994 6.37132 1.71808 6.37401 2.32994V2.56993C6.37305 2.86019 6.30697 3.14654 6.18063 3.40787C6.05429 3.6692 5.87092 3.89885 5.64403 4.07989L5.51403 4.17989C5.26338 4.3695 4.97022 4.49503 4.66001 4.54557C4.34981 4.59611 4.03196 4.57013 3.73408 4.46988C3.46051 4.37521 3.17056 4.33703 2.8818 4.35765C2.59304 4.37828 2.31147 4.45728 2.05413 4.58987C1.78619 4.72286 1.54849 4.90956 1.35581 5.13836C1.16313 5.36717 1.01961 5.63318 0.93416 5.91984L0.114182 8.51977C-0.0759705 9.10595 -0.0272056 9.74348 0.249887 10.2939C0.52698 10.8444 1.01003 11.2633 1.59414 11.4597H1.75414C2.02359 11.5607 2.26543 11.7238 2.46003 11.9357C2.65462 12.1477 2.79649 12.4026 2.87411 12.6797L2.9341 12.8396C3.04558 13.1458 3.08286 13.474 3.04287 13.7973C3.00289 14.1206 2.88679 14.4298 2.70411 14.6996C2.33434 15.2032 2.17837 15.8324 2.27013 16.4504C2.36189 17.0684 2.69396 17.6251 3.1941 17.9995L5.26404 19.5695C5.65598 19.8544 6.12945 20.0052 6.614 19.9995C6.74369 20.0122 6.87431 20.0122 7.00399 19.9995C7.30409 19.9414 7.5892 19.8227 7.84193 19.6508C8.09466 19.4789 8.30971 19.2573 8.47395 18.9995L8.70395 18.6695C8.86528 18.4381 9.07876 18.2478 9.32715 18.1141C9.57554 17.9803 9.85189 17.9068 10.1339 17.8995C10.4295 17.8922 10.722 17.9599 10.9843 18.0963C11.2466 18.2327 11.4701 18.4334 11.6339 18.6795L11.7539 18.8495C11.9244 19.1032 12.145 19.3194 12.4022 19.4846C12.6593 19.6499 12.9476 19.7608 13.2493 19.8104C13.5509 19.8601 13.8595 19.8474 14.1561 19.7733C14.4527 19.6992 14.7309 19.5652 14.9738 19.3795L17.0037 17.8595C17.4837 17.4868 17.8029 16.9445 17.8958 16.344C17.9888 15.7434 17.8485 15.13 17.5037 14.6296L17.2437 14.2496C17.0874 14.008 16.985 13.7356 16.9436 13.4508C16.9022 13.1661 16.9227 12.8758 17.0037 12.5997C17.0863 12.3041 17.2397 12.0331 17.4505 11.8101C17.6613 11.5871 17.9232 11.4188 18.2137 11.3197L18.4137 11.2497C18.9924 11.0489 19.4703 10.6309 19.7465 10.0842C20.0227 9.53743 20.0754 8.90472 19.8936 8.31977ZM10.0039 13.4996C9.31169 13.4996 8.63502 13.2944 8.05947 12.9098C7.48391 12.5252 7.03532 11.9786 6.77042 11.3391C6.50552 10.6996 6.43621 9.99584 6.57126 9.31693C6.7063 8.63801 7.03963 8.01439 7.5291 7.52492C8.01857 7.03545 8.6422 6.70212 9.32111 6.56707C10 6.43203 10.7037 6.50134 11.3433 6.76624C11.9828 7.03114 12.5294 7.47973 12.914 8.05528C13.2985 8.63084 13.5038 9.30751 13.5038 9.99973C13.5038 10.928 13.1351 11.8182 12.4787 12.4745C11.8224 13.1309 10.9321 13.4996 10.0039 13.4996Z" fill="black"/>
</svg>
